<svg width="60" height="60" viewBox="0 0 60 60" fill="none" xmlns="http://www.w3.org/2000/svg">
<path d="M53.1246 46.175L48.9996 47.15C48.0746 47.375 47.3496 48.075 47.1496 49L46.2746 52.675C45.7996 54.675 43.2496 55.3 41.9246 53.725L34.4496 45.125C33.8496 44.425 34.1746 43.325 35.0746 43.1C39.4996 42.025 43.4746 39.55 46.3996 36.025C46.8746 35.45 47.7246 35.375 48.2496 35.9L53.7996 41.45C55.6996 43.35 55.0246 45.725 53.1246 46.175Z" fill="#2B4CA9"/>
<path d="M6.74992 46.175L10.8749 47.15C11.7999 47.375 12.5249 48.075 12.7249 49L13.5999 52.675C14.0749 54.675 16.6249 55.3 17.9499 53.725L25.4249 45.125C26.0249 44.425 25.6999 43.325 24.7999 43.1C20.3749 42.025 16.3999 39.55 13.4749 36.025C12.9999 35.45 12.1499 35.375 11.6249 35.9L6.07492 41.45C4.17492 43.35 4.84992 45.725 6.74992 46.175Z" fill="#2B4CA9"/>
<path d="M30 5C20.325 5 12.5 12.825 12.5 22.5C12.5 26.125 13.575 29.45 15.425 32.225C18.125 36.225 22.4 39.05 27.375 39.775C28.225 39.925 29.1 40 30 40C30.9 40 31.775 39.925 32.625 39.775C37.6 39.05 41.875 36.225 44.575 32.225C46.425 29.45 47.5 26.125 47.5 22.5C47.5 12.825 39.675 5 30 5ZM37.65 21.95L35.575 24.025C35.225 24.375 35.025 25.05 35.15 25.55L35.75 28.125C36.225 30.15 35.15 30.95 33.35 29.875L30.85 28.4C30.4 28.125 29.65 28.125 29.2 28.4L26.7 29.875C24.9 30.925 23.825 30.15 24.3 28.125L24.9 25.55C25 25.075 24.825 24.375 24.475 24.025L22.35 21.95C21.125 20.725 21.525 19.5 23.225 19.225L25.9 18.775C26.35 18.7 26.875 18.3 27.075 17.9L28.55 14.95C29.35 13.35 30.65 13.35 31.45 14.95L32.925 17.9C33.125 18.3 33.65 18.7 34.125 18.775L36.8 19.225C38.475 19.5 38.875 20.725 37.65 21.95Z" fill="#2B4CA9"/>
</svg>
