<svg width="60" height="60" viewBox="0 0 60 60" fill="none" xmlns="http://www.w3.org/2000/svg">
<path d="M43.8246 19.425C43.6496 19.4 43.4746 19.4 43.2996 19.425C39.4246 19.3 36.3496 16.125 36.3496 12.225C36.3496 8.25 39.5746 5 43.5746 5C47.5496 5 50.7996 8.225 50.7996 12.225C50.7746 16.125 47.6996 19.3 43.8246 19.425Z" fill="#2B4CA9"/>
<path d="M51.975 36.75C49.175 38.625 45.25 39.325 41.625 38.85C42.575 36.8 43.075 34.525 43.1 32.125C43.1 29.625 42.55 27.25 41.5 25.175C45.2 24.675 49.125 25.375 51.95 27.25C55.9 29.85 55.9 34.125 51.975 36.75Z" fill="#2B4CA9"/>
<path d="M16.1004 19.425C16.2754 19.4 16.4504 19.4 16.6254 19.425C20.5004 19.3 23.5754 16.125 23.5754 12.225C23.5754 8.225 20.3504 5 16.3504 5C12.3754 5 9.15039 8.225 9.15039 12.225C9.15039 16.125 12.2254 19.3 16.1004 19.425Z" fill="#2B4CA9"/>
<path d="M16.3748 32.125C16.3748 34.55 16.8998 36.85 17.8498 38.925C14.3248 39.3 10.6498 38.55 7.9498 36.775C3.9998 34.15 3.9998 29.875 7.9498 27.25C10.6248 25.45 14.3998 24.725 17.9498 25.125C16.9248 27.225 16.3748 29.6 16.3748 32.125Z" fill="#2B4CA9"/>
<path d="M30.3 39.675C30.1 39.65 29.875 39.65 29.65 39.675C25.05 39.525 21.375 35.75 21.375 31.1C21.4 26.35 25.225 22.5 30 22.5C34.75 22.5 38.6 26.35 38.6 31.1C38.575 35.75 34.925 39.525 30.3 39.675Z" fill="#2B4CA9"/>
<path d="M22.175 44.85C18.4 47.375 18.4 51.525 22.175 54.025C26.475 56.9 33.525 56.9 37.825 54.025C41.6 51.5 41.6 47.35 37.825 44.85C33.55 41.975 26.5 41.975 22.175 44.85Z" fill="#2B4CA9"/>
</svg>
