<svg width="48" height="49" viewBox="0 0 48 49" fill="none" xmlns="http://www.w3.org/2000/svg">
<rect y="0.5" width="48" height="48" rx="24" fill="#2B4CA9"/>
<path d="M23.0625 32.3125H20.25C18.875 32.3125 17.75 33.4375 17.75 34.8125V35.125H16.5C15.9875 35.125 15.5625 35.55 15.5625 36.0625C15.5625 36.575 15.9875 37 16.5 37H31.5C32.0125 37 32.4375 36.575 32.4375 36.0625C32.4375 35.55 32.0125 35.125 31.5 35.125H30.25V34.8125C30.25 33.4375 29.125 32.3125 27.75 32.3125H24.9375V29.45C24.625 29.4875 24.3125 29.5 24 29.5C23.6875 29.5 23.375 29.4875 23.0625 29.45V32.3125Z" fill="#F8F8F8"/>
<path d="M32.0996 24.05C32.9246 23.7375 33.6496 23.225 34.2246 22.65C35.3871 21.3625 36.1496 19.825 36.1496 18.025C36.1496 16.225 34.7371 14.8125 32.9371 14.8125H32.2371C31.4246 13.15 29.7246 12 27.7496 12H20.2496C18.2746 12 16.5746 13.15 15.7621 14.8125H15.0621C13.2621 14.8125 11.8496 16.225 11.8496 18.025C11.8496 19.825 12.6121 21.3625 13.7746 22.65C14.3496 23.225 15.0746 23.7375 15.8996 24.05C17.1996 27.25 20.3246 29.5 23.9996 29.5C27.6746 29.5 30.7996 27.25 32.0996 24.05ZM27.5496 20.0625L26.7746 21.0125C26.6496 21.15 26.5621 21.425 26.5746 21.6125L26.6496 22.8375C26.6996 23.5875 26.1621 23.975 25.4621 23.7L24.3246 23.25C24.1496 23.1875 23.8496 23.1875 23.6746 23.25L22.5371 23.7C21.8371 23.975 21.2996 23.5875 21.3496 22.8375L21.4246 21.6125C21.4371 21.425 21.3496 21.15 21.2246 21.0125L20.4496 20.0625C19.9621 19.4875 20.1746 18.85 20.8996 18.6625L22.0871 18.3625C22.2746 18.3125 22.4996 18.1375 22.5996 17.975L23.2621 16.95C23.6746 16.3125 24.3246 16.3125 24.7371 16.95L25.3996 17.975C25.4996 18.1375 25.7246 18.3125 25.9121 18.3625L27.0996 18.6625C27.8246 18.85 28.0371 19.4875 27.5496 20.0625Z" fill="#F8F8F8"/>
</svg>
