<svg width="60" height="60" viewBox="0 0 60 60" fill="none" xmlns="http://www.w3.org/2000/svg">
<path d="M47.7998 37.35L48.5998 38.975C48.9998 39.775 50.0248 40.525 50.8748 40.675L51.9498 40.85C55.2248 41.4 55.9748 43.8 53.6498 46.15L52.6498 47.15C51.9748 47.825 51.6248 49.125 51.8248 50.075L51.9498 50.675C52.8498 54.625 50.7498 56.15 47.3248 54.075L46.5998 53.625C45.7248 53.1 44.2748 53.1 43.3998 53.625L42.6748 54.075C39.2248 56.15 37.1498 54.625 38.0498 50.675L38.1748 50.075C38.3748 49.15 38.0248 47.825 37.3498 47.15L36.3498 46.15C34.0248 43.775 34.7748 41.4 38.0498 40.85L39.1248 40.675C39.9998 40.525 40.9998 39.775 41.3998 38.975L42.1998 37.35C43.7498 34.225 46.2498 34.225 47.7998 37.35Z" fill="#2B4CA9"/>
<path d="M40.475 5H19.525C10.425 5 5 10.425 5 19.525V40.475C5 49.575 10.425 55 19.525 55H32.725C33.6 55 34.225 54.1 34.125 53.225C34.025 52.275 34.075 51.15 34.375 49.85C34.425 49.675 34.375 49.475 34.225 49.325L33.675 48.775C31.55 46.625 30.775 44.025 31.525 41.65C32.3 39.3 34.45 37.65 37.425 37.15L38.175 37.025L38.85 35.675C40.225 32.875 42.475 31.25 45 31.25C47.525 31.25 49.775 32.875 51.15 35.675L51.525 36.45C51.7 36.825 52.05 37.075 52.45 37.15C52.675 37.2 52.9 37.25 53.125 37.3C54 37.525 55 36.825 55 35.9V19.525C55 10.425 49.575 5 40.475 5ZM40.65 22.4L34.875 29.85C34.15 30.775 33.125 31.375 31.95 31.5C30.8 31.65 29.625 31.325 28.725 30.6L24.15 27.05C23.975 26.9 23.775 26.9 23.675 26.925C23.575 26.925 23.4 26.975 23.25 27.175L17.3 34.9C16.925 35.375 16.375 35.625 15.8 35.625C15.4 35.625 15 35.5 14.65 35.225C13.825 34.6 13.675 33.425 14.3 32.6L20.25 24.875C20.975 23.95 22 23.35 23.175 23.2C24.35 23.05 25.5 23.375 26.425 24.1L31 27.7C31.175 27.85 31.35 27.825 31.475 27.825C31.575 27.825 31.75 27.775 31.9 27.575L37.675 20.125C38.3 19.3 39.475 19.15 40.3 19.8C41.15 20.425 41.275 21.6 40.65 22.4Z" fill="#2B4CA9"/>
</svg>
