<svg width="60" height="60" viewBox="0 0 60 60" fill="none" xmlns="http://www.w3.org/2000/svg">
<path d="M45 5H15C10.85 5 7.5 8.325 7.5 12.425V39.7C7.5 43.8 10.85 47.125 15 47.125H16.9C18.9 47.125 20.8 47.9 22.2 49.3L26.475 53.525C28.425 55.45 31.6 55.45 33.55 53.525L37.825 49.3C39.225 47.9 41.15 47.125 43.125 47.125H45C49.15 47.125 52.5 43.8 52.5 39.7V12.425C52.5 8.325 49.15 5 45 5ZM41.7 26.25L38.775 35.15C38.4 36.625 36.825 37.825 35.225 37.825H30.6C29.8 37.825 28.675 37.55 28.175 37.05L24.5 34.175C24.425 35.775 23.7 36.45 21.925 36.45H20.725C18.875 36.45 18.125 35.725 18.125 33.975V22.05C18.125 20.3 18.875 19.575 20.725 19.575H21.95C23.8 19.575 24.55 20.3 24.55 22.05V22.95L29.4 15.75C29.9 14.975 31.175 14.425 32.25 14.85C33.425 15.25 34.175 16.55 33.925 17.7L33.325 21.6C33.25 21.925 33.325 22.275 33.55 22.5C33.75 22.725 34.05 22.875 34.375 22.875H39.25C40.2 22.875 41 23.25 41.475 23.925C41.925 24.575 42 25.4 41.7 26.25Z" fill="#2B4CA9"/>
</svg>
